<svg width="256" height="284" viewBox="0 0 256 284" fill="none" xmlns="http://www.w3.org/2000/svg">
<path d="M0.768188 50.3477V30C0.768188 13.4315 14.1996 0 30.7682 0H88.5338H128.516H225.288C241.857 0 255.288 13.4315 255.288 30V254C255.288 270.569 241.857 284 225.288 284H30.7682C14.1997 284 0.768188 270.569 0.768188 254V50.3477Z" fill="black"/>
<path d="M95 229.509V54.5C95 54.2239 94.7761 54 94.5 54H76.5383H65.5C65.2239 54 65 54.2239 65 54.5V229.509C65 229.785 65.2239 230.009 65.5 230.009H94.5C94.7761 230.009 95 229.785 95 229.509Z" stroke="white" stroke-width="30"/>
<g filter="url(#filter0_d_51_2)">
<path d="M170.35 54.5343L95.2819 140.824C95.1198 141.01 95.1181 141.287 95.2779 141.476L170.35 229.963C170.445 230.075 170.585 230.14 170.731 230.14H207.592C208.02 230.14 208.25 229.639 207.972 229.315L132.687 141.478C132.525 141.289 132.526 141.009 132.691 140.822L207.95 55.1926C208.234 54.8695 208.005 54.3625 207.574 54.3625H170.728C170.583 54.3625 170.445 54.4252 170.35 54.5343Z" stroke="white" stroke-width="30" shape-rendering="crispEdges"/>
</g>
<defs>
<filter id="filter0_d_51_2" x="74.1592" y="39.3625" width="148.963" height="205.777" filterUnits="userSpaceOnUse" color-interpolation-filters="sRGB">
<feFlood flood-opacity="0" result="BackgroundImageFix"/>
<feColorMatrix in="SourceAlpha" type="matrix" values="0 0 0 0 0 0 0 0 0 0 0 0 0 0 0 0 0 0 127 0" result="hardAlpha"/>
<feOffset dx="-6"/>
<feComposite in2="hardAlpha" operator="out"/>
<feColorMatrix type="matrix" values="0 0 0 0 0 0 0 0 0 0 0 0 0 0 0 0 0 0 1 0"/>
<feBlend mode="normal" in2="BackgroundImageFix" result="effect1_dropShadow_51_2"/>
<feBlend mode="normal" in="SourceGraphic" in2="effect1_dropShadow_51_2" result="shape"/>
</filter>
</defs>
</svg>
