<svg width="189" height="190" viewBox="0 0 189 190" fill="none" xmlns="http://www.w3.org/2000/svg">
<g opacity="0.99">
<path d="M187 95C187 146.372 145.576 188 94.5 188C43.4236 188 2 146.372 2 95C2 43.6276 43.4236 2 94.5 2C145.576 2 187 43.6276 187 95Z" fill="url(#paint0_linear_10_24)" stroke="white" stroke-width="4"/>
<mask id="path-2-outside-1_10_24" maskUnits="userSpaceOnUse" x="24" y="46" width="103" height="96" fill="black">
<rect fill="white" x="24" y="46" width="103" height="96"/>
<path d="M25.1818 141L40.6364 47.9091H65.9091L59.7273 85.5455H61L95.1818 47.9091H124.636L86.4545 89.3636L109.909 141H79.7273L64.8182 106.091L54.4545 117.182L50.4545 141H25.1818Z"/>
</mask>
<path d="M25.1818 141L40.6364 47.9091H65.9091L59.7273 85.5455H61L95.1818 47.9091H124.636L86.4545 89.3636L109.909 141H79.7273L64.8182 106.091L54.4545 117.182L50.4545 141H25.1818Z" fill="black"/>
<path d="M25.1818 141L24.1953 140.836L24.0021 142H25.1818V141ZM40.6364 47.9091V46.9091H39.7887L39.6499 47.7453L40.6364 47.9091ZM65.9091 47.9091L66.8959 48.0712L67.0867 46.9091H65.9091V47.9091ZM59.7273 85.5455L58.7405 85.3834L58.5496 86.5455H59.7273V85.5455ZM61 85.5455V86.5455H61.4427L61.7403 86.2178L61 85.5455ZM95.1818 47.9091V46.9091H94.7392L94.4416 47.2368L95.1818 47.9091ZM124.636 47.9091L125.372 48.5866L126.917 46.9091H124.636V47.9091ZM86.4545 89.3636L85.719 88.6862L85.27 89.1737L85.5441 89.7772L86.4545 89.3636ZM109.909 141V142H111.462L110.82 140.586L109.909 141ZM79.7273 141L78.8076 141.393L79.067 142H79.7273V141ZM64.8182 106.091L65.7378 105.698L65.1352 104.287L64.0875 105.408L64.8182 106.091ZM54.4545 117.182L53.7239 116.499L53.5182 116.719L53.4684 117.016L54.4545 117.182ZM50.4545 141V142H51.3006L51.4407 141.166L50.4545 141ZM26.1683 141.164L41.6229 48.0729L39.6499 47.7453L24.1953 140.836L26.1683 141.164ZM40.6364 48.9091H65.9091V46.9091H40.6364V48.9091ZM64.9223 47.747L58.7405 85.3834L60.7141 85.7075L66.8959 48.0712L64.9223 47.747ZM59.7273 86.5455H61V84.5455H59.7273V86.5455ZM61.7403 86.2178L95.9221 48.5814L94.4416 47.2368L60.2597 84.8731L61.7403 86.2178ZM95.1818 48.9091H124.636V46.9091H95.1818V48.9091ZM123.901 47.2316L85.719 88.6862L87.1901 90.0411L125.372 48.5866L123.901 47.2316ZM85.5441 89.7772L108.999 141.414L110.82 140.586L87.365 88.9501L85.5441 89.7772ZM109.909 140H79.7273V142H109.909V140ZM80.6469 140.607L65.7378 105.698L63.8985 106.484L78.8076 141.393L80.6469 140.607ZM64.0875 105.408L53.7239 116.499L55.1852 117.865L65.5488 106.774L64.0875 105.408ZM53.4684 117.016L49.4684 140.834L51.4407 141.166L55.4407 117.347L53.4684 117.016ZM50.4545 140H25.1818V142H50.4545V140Z" fill="white" mask="url(#path-2-outside-1_10_24)"/>
<path d="M135.218 47.3748H164.509L127.243 89.5437L127.033 89.7818L127.159 90.0734L149.358 141.378L119.821 141.499L96.0933 89.5953L135.218 47.3748Z" fill="black" stroke="white"/>
</g>
<defs>
<linearGradient id="paint0_linear_10_24" x1="42" y1="21.5" x2="144" y2="168" gradientUnits="userSpaceOnUse">
<stop stop-color="#8490FF"/>
<stop offset="1" stop-color="#97FFCD"/>
</linearGradient>
</defs>
</svg>
