<svg xmlns="http://www.w3.org/2000/svg" version="1.1" xmlns:xlink="http://www.w3.org/1999/xlink" xmlns:svgjs="http://svgjs.dev/svgjs" width="1500" height="1500" viewBox="0 0 1500 1500"><rect width="1500" height="1500" fill="#ffffff"></rect><g transform="matrix(0.6666666666666666,0,0,0.6666666666666666,248.44244080996884,189.33333333333348)"><svg viewBox="0 0 321 360" data-background-color="#091019" preserveAspectRatio="xMidYMid meet" height="1682" width="1500" xmlns="http://www.w3.org/2000/svg" xmlns:xlink="http://www.w3.org/1999/xlink"><g id="tight-bounds" transform="matrix(1,0,0,1,0.5000234999999975,0)"><svg viewBox="0 0 320 360" height="360" width="320"><g><svg></svg></g><g><svg viewBox="0 0 320 360" height="360" width="320"><g><path transform="translate(-74.99272,-51.79039) scale(4.65793,4.65793)" d="M20.6 59.9l0.8 1-0.4-1.3c-0.1-0.6-0.8 0.1-0.4 0.3M21.5 59.3c0.3 0.5 0.6 1 0.6 1.5 0 0.7 0.6 1 1.1 1.2-0.7-0.8-1.1-3-1.7-2.7M59.9 16.9c1.7 0 3.3-0.2 5.1 0.2 4.4 1.1 8.1 3.3 10.6 6.4l7 11.2c0.3 2.8 0.9 5.9 0.8 9.3 0.7 0 0.6-1 1.4-1.2-0.8 2-1.2 4.5-1.4 7.4-0.5-1.6 0-4 0.1-5.3-0.7 1.1-1.1 0.3-1.1-0.2 0.1-0.8-0.3-0.7-0.6-1-1.1-1-1.8-2.1-2.6-3.8 0.5-1.3 0.6-3.2-1-4.2-0.5-0.3-1.1-0.8-1.4-1.6-0.4-1.1-1.1-2.4-0.9-4.1 0.1-0.5-1.5 1.1-2.4 0.4-3.9-2.7-7.8-5.8-12.5-8.4-2.5 0-4.3-0.9-5.2-2-0.8-1-0.2-2.3 1-2.4 0.7 0 1.5-0.2 2.1 0.2 0.1-0.4 0.5-0.9 1-0.9M50 14.6l0.2 0.1c1 0.2 1.5 1.6 2.6 1.1 0 0.7 0.1 1.4-0.1 1.9-0.3 0.8-1.2 0.8-1.9 0.8-6.7-0.4-10.6 2.4-14.7 4.8-1.1 0.7-2.3 1.2-3.2 2.1-4.3 4-9 7.7-10.1 15.1l-0.9 8.2c-0.1 0.9-1.1 1.8-0.9 2.9l0.7 4.9c-0.7-0.7-1.1 0.2-0.9 0.6 0.1 0.3 0.5 1.3 1.1 0.4 0.8 1.5 1.6 4.4 2.7 5.7 3.4 4 7.8 7.6 11.4 11.2 0.9-0.2 1.6-0.2 1.8-0.8 0.3 0.6-0.3 1.2-0.8 1.3 1.6 1 3.4 1.9 5.8 2.1 3.1 0.2 6 0.7 8.7 1.4 1.4-0.4 2.8-0.6 4.3-0.7 0.5 0 0.8-0.8 1.4-1l0.1-1c0.6 0.9 0.5-0.3 0.1-0.9 0.7 0.6 0.9 1.1 1.2 1.5 0-0.3 0.8-1.4 0.8-0.1l0.2-1.3c0.3-0.2 0.4 1.1 0.7 0.2 0.3-0.9 0.9-0.2 1.5-0.5-0.2 0.4-0.1 1.2 0.6 0.7l0.8-0.7c0.5 1.2 1.3 0.7 1.7 0.5 4.4-2.8 8.8-6.1 13-9.4l-0.1 1.3 0.5-1.6c0.5 0.5 0.9 0.1 1.1-0.2 0.6-1 1.4-2 2.7-2.9-1.6 4.3-3.5 7.7-5.9 10.5l-1 1.2c0 0.7-0.2 1.6-1 1.7-0.4 0.1-1.2-0.2-1.8 0.4-0.3 0.4 0.7 1.2-0.1 0.6-0.7-0.5-1.4 0-2.2 0.2-0.6 0.2 0.4 0.8 0.6 1.2 0.2 0.4 0.4 0.8 0.3 1.3l-1.1-1.2c-1.3 0.7-2.1 2-3.2 3-0.5 0.4-0.3 1.1-0.3 1.7-0.7 0-1.5-0.2-1.9 0.2-0.3 0.4-0.2 1-0.2 1.6-1-0.1-1.1-1.6-2-1.3-0.9 0.2-1.9 0.3-2.7 0.8 0.6 1.2-1 0.5-0.8 0.7-1.5-0.9-2.8-1.6-4.4-1-3.4-1.1-7.6-0.6-10.7-0.2 0-0.5 0.1-1-0.1-1.1-0.2 0.5-0.8 0.3-0.7 0.3-1.9-1.3-3.8-2.1-5.8-3.2-1.8 0.2-3.5-0.7-4-1.2-1.4-1.3-3-0.6-4.3-0.9-2.8-0.7-3.8-3.6-4.1-5.6-0.2-1-1-1.4-1.3-1.3-1.3-4.2-3.3-8-4.9-11.9-0.4-1-0.3-2-0.3-3.1 0.5 0.2 1 0.1 0.9-0.6-0.5-3.3-1.7-5.8-3-8.2 0.7-3.4 0.8-7.4 2.4-10.4 1.4-2.7 4-4.1 5.8-6.4 0.6-0.8 0.6-1.9 1.2-2.6 2-2 4-4.1 6.2-5.9 1-0.8 2.2 0 3.7-0.3 0.5-1.8 2.5-3.4 4.4-2.9 0.8 0.2 2.4-1.9 2.9-2.1 0.8-0.3 0.4 0.8 0.4 1.5 1.9-1.5 4.5-2.3 6.9-3.2" fill="#000000" fill-rule="nonzero" stroke="none" stroke-width="1" stroke-linecap="butt" stroke-linejoin="miter" stroke-miterlimit="10" stroke-dasharray="" stroke-dashoffset="0" font-family="none" font-weight="none" font-size="none" text-anchor="none" style="mix-blend-mode: normal" data-fill-palette-color="tertiary"></path></g><g transform="matrix(1,0,0,1,64,152.3684483197486)"><svg viewBox="0 0 192 55.26310336050277" height="55.26310336050277" width="192"><g><svg viewBox="0 0 192.95999999999998 55.53941887730527" height="55.26310336050277" width="192"><g><rect width="192.95999999999998" height="1.701099045726316" x="0" y="30.522023073684217" fill="#000000" opacity="1" stroke-width="0" stroke="transparent" fill-opacity="1" class="rect-yte-0" data-fill-palette-color="secondary" rx="1%" id="yte-0" data-palette-color="#f7f7ee"></rect></g><g transform="matrix(1,0,0,1,0.47999999999998977,36.67626098256843)"><svg viewBox="0 0 192 18.863157894736844" height="18.863157894736844" width="192"><g id="textblocktransform"><svg viewBox="0 0 192 18.863157894736844" height="18.863157894736844" width="192" id="textblock"><g><svg viewBox="0 0 192 18.863157894736844" height="18.863157894736844" width="192"><g transform="matrix(1,0,0,1,0,0)"><svg width="192" viewBox="6.5 -35.7 370.47 36.400000000000006" height="18.863157894736844" data-palette-color="#ffffff"><path d="M32.6 0L28.1 0 11.7-17.95 26.9-35 31.2-35 14.75-19.35 32.6 0ZM9.9 0L6.5 0 6.5-35 9.9-35 9.9 0ZM38.55 0L34.9 0 48.35-35 51.45-35 64.9 0 61.25 0 55.05-16.4 43.7-16.4 38.55 0ZM49-32.4L48.7-32.4 44.05-17.6 54.6-17.6 49-32.4ZM73 0L73-35 79.7-35Q85-35 87.92-32.77 90.84-30.55 90.84-26.55L90.84-26.55Q90.84-23.45 89.02-21.4 87.2-19.35 83.75-18.65L83.75-18.65 83.75-18.35Q87.05-17.7 89.15-15.25 91.25-12.8 92.3-9.2L92.3-9.2Q93.25-5.9 94.17-4.08 95.09-2.25 96.22-1.45 97.34-0.65 98.9-0.3L98.9-0.3 98.9 0 96.84 0Q94.65 0 93.22-0.8 91.8-1.6 90.8-3.5 89.8-5.4 88.9-8.75L88.9-8.75Q87.45-13.9 85.05-16.05 82.65-18.2 79.2-18.2L79.2-18.2 78.9-18.2 78.9-19.1 79.2-19.1Q87.25-19.1 87.25-26.5L87.25-26.5Q87.25-33.8 79.7-33.8L79.7-33.8 76.4-33.8 76.4 0 73 0ZM114.24 0L110.84 0 110.84-34Q110.09-34 107.74-33.7L107.74-33.7 97.94-32.45 97.94-35 127.14-35 127.14-32.45 117.34-33.7Q114.99-34 114.24-34L114.24-34 114.24 0ZM138.64 0L135.24 0 135.24-35 138.64-35 138.64 0ZM177.74 0L173.24 0 156.84-17.95 172.04-35 176.34-35 159.89-19.35 177.74 0ZM155.04 0L151.64 0 151.64-35 155.04-35 155.04 0ZM224.83 0L220.33 0 203.93-17.95 219.13-35 223.43-35 206.98-19.35 224.83 0ZM202.13 0L198.73 0 198.73-35 202.13-35 202.13 0ZM231.83-14L231.83-35 235.23-35 235.23-13.9Q235.23-7.85 238.21-4.48 241.18-1.1 246.58-1.1L246.58-1.1Q249.98-1.1 252.51-2.43 255.03-3.75 256.41-6.1 257.78-8.45 257.68-11.5L257.68-11.5 256.83-35 260.23-35 259.38-11.5Q259.18-5.5 255.81-2.4 252.43 0.7 246.18 0.7L246.18 0.7Q239.43 0.7 235.63-3.23 231.83-7.15 231.83-14L231.83-14ZM301.58-35L305.18-35 305.18 0 301.78 0 301.78-32.1 301.48-32.1 289.38-8.9 287.83-8.9 274.08-29.35 273.78-29.35 274.88 0 271.48 0 272.73-35.7 273.73-35.7 289.48-12.3 289.78-12.3 301.58-35ZM316.63 0L312.98 0 326.43-35 329.53-35 342.98 0 339.32 0 333.13-16.4 321.78-16.4 316.63 0ZM327.07-32.4L326.78-32.4 322.13-17.6 332.68-17.6 327.07-32.4ZM351.07 0L351.07-35 357.77-35Q363.07-35 366-32.77 368.92-30.55 368.92-26.55L368.92-26.55Q368.92-23.45 367.1-21.4 365.27-19.35 361.82-18.65L361.82-18.65 361.82-18.35Q365.12-17.7 367.22-15.25 369.32-12.8 370.37-9.2L370.37-9.2Q371.32-5.9 372.25-4.08 373.17-2.25 374.3-1.45 375.42-0.65 376.97-0.3L376.97-0.3 376.97 0 374.92 0Q372.72 0 371.3-0.8 369.87-1.6 368.87-3.5 367.87-5.4 366.97-8.75L366.97-8.75Q365.52-13.9 363.12-16.05 360.72-18.2 357.27-18.2L357.27-18.2 356.97-18.2 356.97-19.1 357.27-19.1Q365.32-19.1 365.32-26.5L365.32-26.5Q365.32-33.8 357.77-33.8L357.77-33.8 354.47-33.8 354.47 0 351.07 0Z" opacity="1" transform="matrix(1,0,0,1,0,0)" fill="#000000" class="wordmark-text-0" data-fill-palette-color="primary" id="text-0"></path></svg></g></svg></g></svg></g></svg></g><g transform="matrix(1,0,0,1,75.44541306760232,0)"><svg viewBox="0 0 42.06917386479533 26.06888421052632" height="26.06888421052632" width="42.06917386479533"><g><svg xmlns="http://www.w3.org/2000/svg" xmlns:xlink="http://www.w3.org/1999/xlink" version="1.1" x="8.000000000000002" y="0" viewBox="4.967 5 90.001 90" enable-background="new 0 0 100 100" xml:space="preserve" height="26.06888421052632" width="26.069173864795328" class="icon-icon-0" data-fill-palette-color="accent" id="icon-0"><g fill="#ffffff" data-fill-palette-color="accent"><polygon points="81.588,69.219 76.042,77.733 49.901,5 30.566,58.797 24.486,43.546 4.967,95 17.555,95 45,95 64.794,95 82.249,95    94.968,95  " fill="#000000" data-fill-palette-color="accent"></polygon></g></svg></g></svg></g><g><rect width="38.29341306760234" height="1.701099045726316" y="23.367785164800004" x="117.51458693239765" fill="#000000" data-fill-palette-color="secondary"></rect><rect width="38.29341306760234" height="1.701099045726316" y="23.367785164800004" x="37.15199999999999" fill="#000000" data-fill-palette-color="secondary"></rect></g></svg></g></svg></g></svg></g><defs></defs></svg><rect width="320" height="360" fill="none" stroke="none" visibility="hidden"></rect></g></svg></g></svg>